<svg width="20" height="19" viewBox="0 0 20 19" fill="none" xmlns="http://www.w3.org/2000/svg">
<g opacity="0.5">
<path fill-rule="evenodd" clip-rule="evenodd" d="M0.767082 8.09223C0.645791 8.14256 0.566436 8.26062 0.567082 8.39159C0.567727 8.52256 0.647727 8.64062 0.769017 8.68965L7.5174 11.4135L19.3729 0.425781L0.767082 8.09223Z" fill="#424753"/>
<path fill-rule="evenodd" clip-rule="evenodd" d="M7.75159 12.0769V17.742C7.75159 17.8872 7.84772 18.0143 7.98772 18.053C8.0161 18.0614 8.04514 18.0653 8.07417 18.0653C8.18514 18.0653 8.29094 18.0072 8.3503 17.9085L11.1258 13.2878L16.1942 15.9962C16.2413 16.022 16.2935 16.0343 16.3458 16.0343C16.3916 16.0343 16.4374 16.0246 16.4806 16.0053C16.5722 15.9627 16.6387 15.8801 16.6606 15.7814L20 0.724609L7.75159 12.0769Z" fill="#424753"/>
</g>
</svg>
