<svg width="20" height="20" viewBox="0 0 20 20" fill="none" xmlns="http://www.w3.org/2000/svg">
<path fill-rule="evenodd" clip-rule="evenodd" d="M18.5071 15.5871C17.9303 14.4361 16.0355 13.7426 13.4129 12.7819C13.0419 12.6465 12.6568 12.5052 12.2581 12.3561V10.2703C12.52 9.98387 13.1832 9.13097 13.2484 7.80645C13.431 7.6671 13.5768 7.40387 13.6606 7.0471C13.7942 6.48065 13.7239 5.8071 13.3065 5.43226C13.3348 5.35871 13.3697 5.27161 13.4019 5.18903C13.7103 4.41161 14.2852 2.96323 14.0606 1.83935C13.8065 0.568387 11.9568 0 10.2361 0C8.97806 0 7.44774 0.314839 7.01097 1.18323C6.5271 1.22774 6.15742 1.41935 5.90903 1.75419C5.2271 2.6729 5.73226 4.33935 6.00323 5.23419C6.02194 5.29742 6.04258 5.36387 6.05935 5.42129C5.63161 5.79355 5.55806 6.47484 5.69355 7.0471C5.77742 7.40387 5.92323 7.6671 6.10581 7.80645C6.16968 9.10581 6.81806 9.87161 7.09613 10.1432V12.3561C6.69677 12.5052 6.31097 12.6471 5.93935 12.7826C3.31677 13.7426 1.42194 14.4361 0.847097 15.5871C0.00903231 17.2632 0 18.9606 0 19.0323C0 19.2097 0.143871 19.3548 0.321935 19.3548H19.0323C19.2103 19.3548 19.3548 19.2097 19.3548 19.0323C19.3548 18.9606 19.3452 17.2632 18.5071 15.5871Z" fill="#58595B" fill-opacity="0.5"/>
</svg>
