<svg width="14" height="21" viewBox="0 0 14 21" fill="none" xmlns="http://www.w3.org/2000/svg">
<path fill-rule="evenodd" clip-rule="evenodd" d="M11.6685 8.93944V4.66742C11.6685 2.22436 9.28483 0 6.66774 0C4.04999 0 1.66694 2.22436 1.66694 4.66742V8.93944C0.632769 10.115 0 11.6512 0 13.3355C0 17.0121 2.99115 20.0032 6.66774 20.0032C10.3437 20.0032 13.3355 17.0121 13.3355 13.3355C13.3355 11.6512 12.702 10.115 11.6685 8.93944ZM7.00113 13.9089V16.336C7.00113 16.52 6.85177 16.6694 6.66774 16.6694C6.48305 16.6694 6.33435 16.52 6.33435 16.336V13.9089C6.13566 13.7936 6.00097 13.5809 6.00097 13.3355C6.00097 12.9681 6.29968 12.6687 6.66774 12.6687C7.03513 12.6687 7.33452 12.9681 7.33452 13.3355C7.33452 13.5809 7.19916 13.7936 7.00113 13.9089ZM11.0018 8.27867C9.83492 7.27717 8.32201 6.66774 6.66774 6.66774C5.01281 6.66774 3.50056 7.27717 2.33371 8.27867V4.66742C2.33371 2.61109 4.44005 0.666774 6.66774 0.666774C8.89543 0.666774 11.0018 2.61109 11.0018 4.66742V8.27867Z" fill="#424753" fill-opacity="0.5"/>
</svg>
