<svg width="18" height="12" viewBox="0 0 18 12" fill="none" xmlns="http://www.w3.org/2000/svg">
<path d="M12.7536 0.646447C12.5583 0.451184 12.2417 0.451184 12.0464 0.646447C11.8512 0.841709 11.8512 1.15829 12.0464 1.35355L12.7536 0.646447ZM17.2 5.8L17.5536 6.15355C17.7488 5.95829 17.7488 5.64171 17.5536 5.44645L17.2 5.8ZM12.0464 10.2464C11.8512 10.4417 11.8512 10.7583 12.0464 10.9536C12.2417 11.1488 12.5583 11.1488 12.7536 10.9536L12.0464 10.2464ZM17.2 6.3C17.4761 6.3 17.7 6.07614 17.7 5.8C17.7 5.52386 17.4761 5.3 17.2 5.3V6.3ZM1 5.3C0.723858 5.3 0.5 5.52386 0.5 5.8C0.5 6.07614 0.723858 6.3 1 6.3V5.3ZM12.0464 1.35355L16.8464 6.15355L17.5536 5.44645L12.7536 0.646447L12.0464 1.35355ZM16.8464 5.44645L12.0464 10.2464L12.7536 10.9536L17.5536 6.15355L16.8464 5.44645ZM17.2 5.3H1V6.3H17.2V5.3Z" fill="white"/>
</svg>
