<svg width="38" height="43" viewBox="0 0 38 43" fill="none" xmlns="http://www.w3.org/2000/svg">
<path fill-rule="evenodd" clip-rule="evenodd" d="M26.3591 15.9355L27.713 13.9282L28.2311 14.2776C28.4591 14.4314 28.7626 14.4175 28.9764 14.2435L34.0258 10.1105C34.1787 9.98448 34.2632 9.79426 34.2546 9.59694C34.2449 9.39893 34.1433 9.21879 33.9795 9.10835L24.6529 2.81743C24.4881 2.70629 24.283 2.67953 24.0958 2.74473C23.9096 2.81064 23.7649 2.96032 23.7063 3.14999L21.7658 9.37996C21.6836 9.64266 21.7843 9.92922 22.0134 10.0837L22.5315 10.4332L21.1776 12.4405C17.4409 11.4776 13.3364 12.8887 11.0591 16.2649C8.31557 20.3324 7.58307 35.5101 7.55358 36.1551C7.5427 36.3724 7.64697 36.58 7.82832 36.7023L16.2162 24.2667C16.233 24.2419 16.2563 24.2274 16.2758 24.2074C15.5294 23.3738 15.4055 22.1156 16.0598 21.1457C16.8321 20.0006 18.3852 19.6987 19.5303 20.471C20.6744 21.2427 20.9773 22.7965 20.2049 23.9416C19.5507 24.9116 18.3367 25.2673 17.2848 24.8865C17.2719 24.9124 17.2693 24.9409 17.2525 24.9657L8.86462 37.4013C9.04804 37.525 9.28543 37.5419 9.48635 37.4452C10.0856 37.1559 24.2032 30.3084 26.6036 26.7498C28.8809 23.3735 28.6505 19.0386 26.3591 15.9355ZM25.5227 14.9401C25.0893 14.4985 24.6054 14.0937 24.0738 13.7351C23.5411 13.3758 22.9845 13.0788 22.4138 12.8431L23.5678 11.1322L26.6767 13.2292L25.5227 14.9401Z" fill="#424753"/>
</svg>
