<svg width="17" height="17" viewBox="0 0 17 17" fill="none" xmlns="http://www.w3.org/2000/svg">
<path fill-rule="evenodd" clip-rule="evenodd" d="M0.428798 5.45115H3.74224V16.9989H0.428798V5.45115ZM2.00106 4.00672H1.97707C0.777634 4.00672 0 3.12396 0 2.00608C0 0.865348 0.800623 0 2.02405 0C3.24647 0 3.99812 0.863171 4.02211 2.00282C4.02211 3.12069 3.24647 4.00672 2.00106 4.00672ZM17 17H13.2428V11.0231C13.2428 9.45896 12.655 8.39224 11.3627 8.39224C10.3741 8.39224 9.82438 9.11173 9.5685 9.80727C9.47254 10.0554 9.48754 10.4027 9.48754 10.751V17H5.76529C5.76529 17 5.81326 6.41337 5.76529 5.45115H9.48754V7.26348C9.70743 6.47106 10.8969 5.34012 12.795 5.34012C15.1499 5.34012 17 7.00224 17 10.5779V17Z" fill="white" fill-opacity="0.5"/>
</svg>
