<svg width="45" height="36" viewBox="0 0 45 36" fill="none" xmlns="http://www.w3.org/2000/svg">
<path fill-rule="evenodd" clip-rule="evenodd" d="M24.7903 12.9769V11.2742H25.2298C25.4232 11.2742 25.5946 11.1467 25.6509 10.9613L25.9874 9.83965C26.7328 9.5243 27.4857 9.3 28.1191 9.3C33.0165 9.3 36.9867 13.2836 36.9867 18.1976C36.9867 23.1116 22.5 35.2 22.5 35.2C22.5 35.2 8.01334 23.1116 8.01334 18.1976C8.01334 13.2836 11.9835 9.3 16.8809 9.3C17.5748 9.3 18.4121 9.56919 19.2259 9.9324L19.5346 10.9613C19.59 11.1467 19.7614 11.2742 19.9556 11.2742H20.3952V12.9769C17.8381 13.8849 16 16.3216 16 19.1855C16 22.6357 21.5414 31.7724 21.7779 32.16C21.857 32.291 21.9994 32.371 22.1532 32.371V21.8226C22.1532 21.809 22.1565 21.7968 22.1598 21.7847C22.1616 21.7781 22.1634 21.7714 22.1647 21.7646C21.4017 21.5721 20.8347 20.8873 20.8347 20.0645C20.8347 19.0932 21.6214 18.3065 22.5927 18.3065C23.5632 18.3065 24.3508 19.0932 24.3508 20.0645C24.3508 20.8873 23.783 21.5721 23.02 21.7637C23.0211 21.7722 23.0234 21.7803 23.0258 21.7883C23.029 21.7994 23.0323 21.8104 23.0323 21.8226V32.371C23.1878 32.371 23.3329 32.2875 23.412 32.1521C23.6476 31.7477 29.1855 22.2041 29.1855 19.1855C29.1855 16.3216 27.3465 13.8849 24.7903 12.9769Z" fill="white"/>
<path d="M41 19.5C41 9.28273 32.7173 1 22.5 1C12.2827 1 4 9.28273 4 19.5" stroke="white" stroke-width="2"/>
<path fill-rule="evenodd" clip-rule="evenodd" d="M6 14C2.68629 14 0 16.6863 0 20C0 23.3137 2.68629 26 6 26" fill="white"/>
<path fill-rule="evenodd" clip-rule="evenodd" d="M39 14C42.3137 14 45 16.6863 45 20C45 23.3137 42.3137 26 39 26" fill="white"/>
</svg>
