<svg width="16" height="17" viewBox="0 0 16 17" fill="none" xmlns="http://www.w3.org/2000/svg">
<path fill-rule="evenodd" clip-rule="evenodd" d="M5.26133 1.67685C5.2112 1.62779 5.144 1.60059 5.07413 1.60059H0.274129C0.126929 1.60059 0.00799561 1.72005 0.00799561 1.86725V6.40059C0.00799561 6.47152 0.0357289 6.53979 0.0863956 6.58939L9.5008 15.9233C9.55146 15.9729 9.61919 16.0006 9.68906 16.0006C9.7072 16.0006 9.7248 15.9985 9.74293 15.9947C9.83039 15.9766 9.90346 15.9158 9.93653 15.8331L11.2389 12.5766L14.4949 11.2742C14.5787 11.2406 14.6395 11.1675 14.6571 11.0795C14.6752 10.991 14.6475 10.8993 14.5829 10.8363L5.26133 1.67685ZM3.30026 5.64699C2.744 5.64699 2.29173 5.19525 2.29173 4.63792C2.29173 4.08112 2.744 3.62939 3.30026 3.62939C3.85706 3.62939 4.30933 4.08112 4.30933 4.63792C4.30933 5.19525 3.85706 5.64699 3.30026 5.64699Z" fill="white" fill-opacity="0.5"/>
<path fill-rule="evenodd" clip-rule="evenodd" d="M15.7957 9.08043L6.99573 0.338564C6.9456 0.288964 6.87787 0.26123 6.808 0.26123H2.008C1.86027 0.26123 1.74133 0.380697 1.74133 0.527897C1.74133 0.675097 1.86027 0.794564 2.008 0.794564H6.69813L15.1125 9.15403L14.5147 9.35296C14.3744 9.3999 14.2992 9.55083 14.3456 9.69056C14.3829 9.80203 14.4869 9.87296 14.5989 9.87296C14.6267 9.87296 14.6549 9.8687 14.6832 9.8591L15.6923 9.5231C15.7797 9.49376 15.8464 9.4207 15.8672 9.33056C15.8885 9.24043 15.8613 9.1455 15.7957 9.08043Z" fill="white" fill-opacity="0.5"/>
</svg>
