<svg width="16" height="16" viewBox="0 0 16 16" fill="none" xmlns="http://www.w3.org/2000/svg">
<path fill-rule="evenodd" clip-rule="evenodd" d="M7.74194 0C3.47303 0 0 3.47303 0 7.74194C0 12.0108 3.47303 15.4839 7.74194 15.4839C12.0108 15.4839 15.4839 12.0108 15.4839 7.74194C15.4839 3.47303 12.0108 0 7.74194 0ZM11.5097 11.4968C11.4586 11.5515 11.3899 11.5788 11.3208 11.5788C11.2578 11.5788 11.1948 11.5566 11.1448 11.5102L7.30787 7.93032C7.25523 7.88181 7.22529 7.81368 7.22529 7.74194V4.16258C7.22529 4.02013 7.3409 3.90452 7.48387 3.90452C7.62632 3.90452 7.74194 4.02013 7.74194 4.16258V7.62994L11.4968 11.1319C11.601 11.2299 11.6067 11.393 11.5097 11.4968Z" fill="white" fill-opacity="0.5"/>
</svg>
