<svg width="18" height="16" viewBox="0 0 18 16" fill="none" xmlns="http://www.w3.org/2000/svg">
<path fill-rule="evenodd" clip-rule="evenodd" d="M15.8796 2.4392C16.6424 1.95782 17.2277 1.19453 17.5024 0.28526C16.7882 0.732094 15.9989 1.05524 15.1569 1.23019C14.4849 0.472462 13.5246 0 12.4617 0C10.4226 0 8.77021 1.74388 8.77021 3.89447C8.77021 4.19979 8.80085 4.49731 8.86424 4.78145C5.79609 4.61877 3.07554 3.06989 1.25304 0.712036C0.935024 1.28924 0.753302 1.95782 0.753302 2.67097C0.753302 4.0215 1.40518 5.2138 2.3962 5.91358C1.79081 5.89352 1.22134 5.71635 0.722662 5.42663V5.47455C0.722662 7.36217 1.99472 8.93667 3.68621 9.29325C3.37559 9.38462 3.05018 9.4303 2.7121 9.4303C2.47438 9.4303 2.24194 9.4069 2.01796 9.36122C2.48706 10.9079 3.85103 12.0355 5.46751 12.0656C4.20285 13.1108 2.61067 13.7326 0.881141 13.7326C0.583201 13.7326 0.288431 13.7159 0 13.6791C1.63444 14.7834 3.57528 15.4286 5.66086 15.4286C12.4543 15.4286 16.1669 9.49382 16.1669 4.34688C16.1669 4.1775 16.1648 4.00924 16.1574 3.84321C16.879 3.29387 17.5066 2.60746 18 1.82633C17.3376 2.13611 16.6255 2.3456 15.8796 2.4392Z" fill="white" fill-opacity="0.5"/>
</svg>
