<svg width="24" height="22" viewBox="0 0 24 22" fill="none" xmlns="http://www.w3.org/2000/svg">
<path d="M4.09983 2.54157L3.90587 2.08073L3.7917 2.12878L3.71317 2.22457L4.09983 2.54157ZM7.76245 1V0.5H7.66152L7.56849 0.539156L7.76245 1ZM19.9002 2.54157L20.2868 2.22457L20.2083 2.12878L20.0941 2.08073L19.9002 2.54157ZM16.2375 1L16.4315 0.539156L16.3385 0.5H16.2375L16.2375 1ZM1.38666 6.63958L4.4865 2.85858L3.71317 2.22457L0.613336 6.00558L1.38666 6.63958ZM4.2938 3.00242L7.95642 1.46084L7.56849 0.539156L3.90587 2.08073L4.2938 3.00242ZM7.76245 1.5L12 1.5V0.5L7.76245 0.5V1.5ZM12.4001 20.7001L1.40011 6.02272L0.599894 6.62244L11.5999 21.2999L12.4001 20.7001ZM23.3867 6.00558L20.2868 2.22457L19.5135 2.85858L22.6133 6.63958L23.3867 6.00558ZM20.0941 2.08073L16.4315 0.539156L16.0436 1.46084L19.7062 3.00242L20.0941 2.08073ZM16.2375 0.5L12 0.5V1.5L16.2375 1.5L16.2375 0.5ZM12.4001 21.2999L23.4001 6.62244L22.5999 6.02272L11.5999 20.7001L12.4001 21.2999Z" fill="white"/>
<path d="M4.15442 2.55281L7.81896 4.70971H16.2218L19.8456 2.53229" stroke="white"/>
<path d="M16.2059 4.70966L19.196 8.49998L22.6765 6.02449" stroke="white"/>
<path d="M7.875 4.70966L4.8849 8.49998L1.32353 5.94451" stroke="white"/>
<path d="M19.2794 8.5L12 21" stroke="white"/>
<path d="M4.88235 8.5L12 20.7581" stroke="white"/>
<path d="M4.96326 8.5H19.1177" stroke="white"/>
</svg>
